<?xml version="1.0" standalone="no"?>
<!DOCTYPE svg PUBLIC "-//W3C//DTD SVG 20010904//EN"
 "http://www.w3.org/TR/2001/REC-SVG-20010904/DTD/svg10.dtd">
<svg version="1.0" xmlns="http://www.w3.org/2000/svg"
 width="1080.000000pt" height="1080.000000pt" viewBox="0 0 1080.000000 1080.000000"
 preserveAspectRatio="xMidYMid meet">

<g transform="translate(0.000000,1080.000000) scale(0.100000,-0.100000)"
fill="#fff" stroke="none">
<path d="M6540 10249 c-32 -13 -68 -47 -86 -82 -13 -24 -481 -1122 -1911
-4479 -229 -538 -418 -976 -420 -974 -2 1 -59 190 -126 418 -68 229 -131 427
-141 442 -31 48 -73 66 -156 66 -85 0 -149 -25 -182 -70 -13 -18 -54 -206
-139 -635 -66 -336 -122 -617 -125 -625 -3 -8 -201 723 -440 1625 -238 902
-442 1659 -453 1682 -43 90 -162 128 -257 83 -63 -31 -104 -95 -104 -165 0
-58 1027 -3953 1058 -4014 11 -21 39 -48 67 -66 105 -65 234 -18 302 110 6 11
71 324 144 695 73 371 136 679 139 683 4 4 55 -158 115 -360 109 -371 127
-424 162 -455 25 -23 87 -48 118 -48 31 0 93 30 117 56 9 11 197 444 418 964
221 520 787 1847 1257 2950 701 1644 856 2013 856 2051 2 109 -112 188 -213
148z"/>
<path d="M6430 7515 c-186 -35 -329 -109 -470 -242 -281 -266 -468 -737 -575
-1443 -38 -253 -42 -373 -16 -550 93 -627 324 -974 716 -1076 93 -24 297 -24
410 0 252 54 719 272 782 365 47 70 23 177 -49 221 -58 35 -120 27 -213 -26
-300 -172 -556 -264 -734 -264 -68 0 -167 23 -220 49 -59 30 -145 115 -190
186 -84 132 -150 343 -186 586 -19 133 -20 190 -5 304 115 914 349 1422 712
1546 81 27 225 36 322 19 115 -20 241 -66 402 -147 143 -72 154 -75 198 -69
53 8 106 49 126 96 7 17 10 52 8 78 -8 82 -32 104 -223 197 -184 90 -279 126
-414 155 -121 26 -288 33 -381 15z"/>
</g>
</svg>
